<mxGraphModel dx="1291" dy="1379" grid="1" gridSize="10" guides="1" tooltips="1" connect="1" arrows="1" fold="1" page="1" pageScale="1" pageWidth="1600" pageHeight="1200" math="0" shadow="0">
  <root>
    <mxCell id="0" />
    <mxCell id="1" parent="0" />
    <mxCell id="app1" value="pymongo-api" style="rounded=1;whiteSpace=wrap;html=1;fillColor=#dae8fc;strokeColor=#6c8ebf;fontSize=14;fontStyle=1;" parent="1" vertex="1">
      <mxGeometry x="640" y="80" width="140" height="70" as="geometry" />
    </mxCell>
    <mxCell id="router1" value="mongos-r1" style="rounded=1;whiteSpace=wrap;html=1;fillColor=#e1d5e7;strokeColor=#9673a6;fontSize=12;fontStyle=1;" parent="1" vertex="1">
      <mxGeometry x="430" y="250" width="120" height="60" as="geometry" />
    </mxCell>
    <mxCell id="router2" value="mongos-r2" style="rounded=1;whiteSpace=wrap;html=1;fillColor=#e1d5e7;strokeColor=#9673a6;fontSize=12;fontStyle=1;" parent="1" vertex="1">
      <mxGeometry x="650" y="250" width="120" height="60" as="geometry" />
    </mxCell>
    <mxCell id="router3" value="mongos-r3" style="rounded=1;whiteSpace=wrap;html=1;fillColor=#e1d5e7;strokeColor=#9673a6;fontSize=12;fontStyle=1;" parent="1" vertex="1">
      <mxGeometry x="830" y="250" width="120" height="60" as="geometry" />
    </mxCell>
    <mxCell id="config_group" value="Config Servers RS" style="rounded=1;whiteSpace=wrap;html=1;fillColor=#f8cecc;strokeColor=#b85450;fontSize=12;fontStyle=1;dashed=1;" parent="1" vertex="1">
      <mxGeometry x="40" y="490" width="300" height="40" as="geometry" />
    </mxCell>
    <mxCell id="config1" value="configSrv-1&#xa;(Primary)" style="shape=cylinder3;whiteSpace=wrap;html=1;boundedLbl=1;backgroundOutline=1;size=15;fillColor=#f8cecc;strokeColor=#b85450;fontSize=11;fontStyle=1;" parent="1" vertex="1">
      <mxGeometry x="80" y="550" width="90" height="80" as="geometry" />
    </mxCell>
    <mxCell id="config2" value="configSrv-2&#xa;(Secondary)" style="shape=cylinder3;whiteSpace=wrap;html=1;boundedLbl=1;backgroundOutline=1;size=15;fillColor=#f8cecc;strokeColor=#b85450;fontSize=11;" parent="1" vertex="1">
      <mxGeometry x="200" y="550" width="90" height="80" as="geometry" />
    </mxCell>
    <mxCell id="config3" value="configSrv-3&#xa;(Secondary)" style="shape=cylinder3;whiteSpace=wrap;html=1;boundedLbl=1;backgroundOutline=1;size=15;fillColor=#f8cecc;strokeColor=#b85450;fontSize=11;" parent="1" vertex="1">
      <mxGeometry x="140" y="680" width="90" height="80" as="geometry" />
    </mxCell>
    <mxCell id="shard1_group" value="Shard 1 RS" style="rounded=1;whiteSpace=wrap;html=1;fillColor=#d5e8d4;strokeColor=#82b366;fontSize=12;fontStyle=1;dashed=1;" parent="1" vertex="1">
      <mxGeometry x="790" y="570" width="250" height="40" as="geometry" />
    </mxCell>
    <mxCell id="shard1_1" value="shard1-1&#xa;(Primary)" style="shape=cylinder3;whiteSpace=wrap;html=1;boundedLbl=1;backgroundOutline=1;size=15;fillColor=#d5e8d4;strokeColor=#82b366;fontSize=11;fontStyle=1;" parent="1" vertex="1">
      <mxGeometry x="820" y="640" width="90" height="80" as="geometry" />
    </mxCell>
    <mxCell id="shard1_2" value="shard1-2&#xa;(Secondary)" style="shape=cylinder3;whiteSpace=wrap;html=1;boundedLbl=1;backgroundOutline=1;size=15;fillColor=#d5e8d4;strokeColor=#82b366;fontSize=11;" parent="1" vertex="1">
      <mxGeometry x="930" y="640" width="90" height="80" as="geometry" />
    </mxCell>
    <mxCell id="shard1_3" value="shard1-3&#xa;(Secondary)" style="shape=cylinder3;whiteSpace=wrap;html=1;boundedLbl=1;backgroundOutline=1;size=15;fillColor=#d5e8d4;strokeColor=#82b366;fontSize=11;" parent="1" vertex="1">
      <mxGeometry x="875" y="760" width="90" height="80" as="geometry" />
    </mxCell>
    <mxCell id="shard2_group" value="Shard 2 RS" style="rounded=1;whiteSpace=wrap;html=1;fillColor=#d5e8d4;strokeColor=#82b366;fontSize=12;fontStyle=1;dashed=1;" parent="1" vertex="1">
      <mxGeometry x="1140" y="570" width="250" height="40" as="geometry" />
    </mxCell>
    <mxCell id="shard2_1" value="shard2-1&#xa;(Primary)" style="shape=cylinder3;whiteSpace=wrap;html=1;boundedLbl=1;backgroundOutline=1;size=15;fillColor=#d5e8d4;strokeColor=#82b366;fontSize=11;fontStyle=1;" parent="1" vertex="1">
      <mxGeometry x="1170" y="640" width="90" height="80" as="geometry" />
    </mxCell>
    <mxCell id="shard2_2" value="shard2-2&#xa;(Secondary)" style="shape=cylinder3;whiteSpace=wrap;html=1;boundedLbl=1;backgroundOutline=1;size=15;fillColor=#d5e8d4;strokeColor=#82b366;fontSize=11;" parent="1" vertex="1">
      <mxGeometry x="1280" y="640" width="90" height="80" as="geometry" />
    </mxCell>
    <mxCell id="shard2_3" value="shard2-3&#xa;(Secondary)" style="shape=cylinder3;whiteSpace=wrap;html=1;boundedLbl=1;backgroundOutline=1;size=15;fillColor=#d5e8d4;strokeColor=#82b366;fontSize=11;" parent="1" vertex="1">
      <mxGeometry x="1225" y="760" width="90" height="80" as="geometry" />
    </mxCell>
    <mxCell id="conn1" style="edgeStyle=orthogonalEdgeStyle;rounded=0;orthogonalLoop=1;jettySize=auto;html=1;strokeWidth=3;strokeColor=#0066cc;entryX=0.5;entryY=0;entryDx=0;entryDy=0;exitX=0.25;exitY=1;exitDx=0;exitDy=0;" parent="1" source="app1" target="router1" edge="1">
      <mxGeometry relative="1" as="geometry">
        <Array as="points">
          <mxPoint x="675" y="200" />
          <mxPoint x="490" y="200" />
        </Array>
      </mxGeometry>
    </mxCell>
    <mxCell id="conn2" style="edgeStyle=orthogonalEdgeStyle;rounded=0;orthogonalLoop=1;jettySize=auto;html=1;strokeWidth=3;strokeColor=#0066cc;entryX=0.5;entryY=0;entryDx=0;entryDy=0;exitX=0.5;exitY=1;exitDx=0;exitDy=0;" parent="1" source="app1" target="router2" edge="1">
      <mxGeometry relative="1" as="geometry" />
    </mxCell>
    <mxCell id="conn3" style="edgeStyle=orthogonalEdgeStyle;rounded=0;orthogonalLoop=1;jettySize=auto;html=1;strokeWidth=3;strokeColor=#0066cc;entryX=0.5;entryY=0;entryDx=0;entryDy=0;exitX=0.75;exitY=1;exitDx=0;exitDy=0;" parent="1" source="app1" target="router3" edge="1">
      <mxGeometry relative="1" as="geometry">
        <Array as="points">
          <mxPoint x="745" y="200" />
          <mxPoint x="890" y="200" />
        </Array>
      </mxGeometry>
    </mxCell>
    <mxCell id="config_bus" value="" style="rounded=0;whiteSpace=wrap;html=1;fillColor=none;strokeColor=#B85450;strokeWidth=2;dashed=1;" parent="1" vertex="1">
      <mxGeometry x="400" y="440" width="230" height="20" as="geometry" />
    </mxCell>
    <mxCell id="router1_to_config" style="endArrow=classic;html=1;rounded=0;exitX=0.5;exitY=1;exitDx=0;exitDy=0;dashed=1;entryX=0.5;entryY=0;entryDx=0;entryDy=0;strokeWidth=2;strokeColor=#B85450;" parent="1" source="router1" target="config_bus" edge="1">
      <mxGeometry width="50" height="50" relative="1" as="geometry">
        <mxPoint x="490" y="350" as="sourcePoint" />
        <mxPoint x="469" y="440" as="targetPoint" />
      </mxGeometry>
    </mxCell>
    <mxCell id="router2_to_config" style="endArrow=classic;html=1;rounded=0;exitX=0.5;exitY=1;exitDx=0;exitDy=0;entryX=0.5;entryY=0;entryDx=0;entryDy=0;dashed=1;strokeWidth=2;strokeColor=#B85450;" parent="1" source="router2" target="config_bus" edge="1">
      <mxGeometry width="50" height="50" relative="1" as="geometry">
        <mxPoint x="710" y="350" as="sourcePoint" />
        <mxPoint x="515" y="440" as="targetPoint" />
      </mxGeometry>
    </mxCell>
    <mxCell id="router3_to_config" style="endArrow=classic;html=1;rounded=0;exitX=0.5;exitY=1;exitDx=0;exitDy=0;entryX=0.5;entryY=0;entryDx=0;entryDy=0;dashed=1;strokeWidth=2;strokeColor=#B85450;" parent="1" source="router3" target="config_bus" edge="1">
      <mxGeometry width="50" height="50" relative="1" as="geometry">
        <mxPoint x="890" y="350" as="sourcePoint" />
        <mxPoint x="561" y="440" as="targetPoint" />
      </mxGeometry>
    </mxCell>
    <mxCell id="config_to_primary" style="edgeStyle=orthogonalEdgeStyle;rounded=0;orthogonalLoop=1;jettySize=auto;html=1;strokeWidth=2;strokeColor=#b85450;entryX=0.5;entryY=0;entryDx=0;entryDy=0;" parent="1" target="config_group" edge="1">
      <mxGeometry relative="1" as="geometry">
        <mxPoint x="400" y="450" as="sourcePoint" />
        <Array as="points">
          <mxPoint x="190" y="450" />
        </Array>
      </mxGeometry>
    </mxCell>
    <mxCell id="-05sG0Bi-hZpC2jNQhVa-1" style="edgeStyle=orthogonalEdgeStyle;rounded=0;orthogonalLoop=1;jettySize=auto;html=1;exitX=0.5;exitY=0;exitDx=0;exitDy=0;entryX=0.5;entryY=0;entryDx=0;entryDy=0;endArrow=classic;endFill=1;startArrow=classic;startFill=1;strokeWidth=3;strokeColor=#82B366;fillColor=#60a917;" edge="1" parent="1" source="shard2_group" target="shard1_group">
      <mxGeometry relative="1" as="geometry">
        <mxPoint x="1100" y="550" as="targetPoint" />
      </mxGeometry>
    </mxCell>
    <mxCell id="-05sG0Bi-hZpC2jNQhVa-2" style="edgeStyle=orthogonalEdgeStyle;rounded=0;orthogonalLoop=1;jettySize=auto;html=1;exitX=1;exitY=0.5;exitDx=0;exitDy=0;endArrow=none;endFill=0;strokeWidth=3;strokeColor=#82B366;" edge="1" parent="1" source="shard_bus">
      <mxGeometry relative="1" as="geometry">
        <mxPoint x="1100" y="550" as="targetPoint" />
      </mxGeometry>
    </mxCell>
    <mxCell id="shard_bus" value="" style="rounded=0;whiteSpace=wrap;html=1;fillColor=none;strokeColor=#82b366;strokeWidth=3;dashed=1;" parent="1" vertex="1">
      <mxGeometry x="700" y="440" width="300" height="20" as="geometry" />
    </mxCell>
    <mxCell id="router1_to_shard" style="endArrow=classic;html=1;rounded=0;exitX=0.5;exitY=1;exitDx=0;exitDy=0;entryX=0.5;entryY=0;entryDx=0;entryDy=0;strokeWidth=3;strokeColor=#82b366;" parent="1" source="router1" target="shard_bus" edge="1">
      <mxGeometry width="50" height="50" relative="1" as="geometry">
        <mxPoint x="490" y="350" as="sourcePoint" />
        <mxPoint x="780" y="440" as="targetPoint" />
      </mxGeometry>
    </mxCell>
    <mxCell id="router2_to_shard" style="endArrow=classic;html=1;rounded=0;exitX=0.5;exitY=1;exitDx=0;exitDy=0;entryX=0.5;entryY=0;entryDx=0;entryDy=0;strokeWidth=3;strokeColor=#82b366;" parent="1" source="router2" target="shard_bus" edge="1">
      <mxGeometry width="50" height="50" relative="1" as="geometry">
        <mxPoint x="710" y="350" as="sourcePoint" />
        <mxPoint x="900" y="440" as="targetPoint" />
      </mxGeometry>
    </mxCell>
    <mxCell id="router3_to_shard" style="endArrow=classic;html=1;rounded=0;exitX=0.5;exitY=1;exitDx=0;exitDy=0;strokeWidth=3;strokeColor=#82b366;entryX=0.5;entryY=0;entryDx=0;entryDy=0;" parent="1" source="router3" target="shard_bus" edge="1">
      <mxGeometry width="50" height="50" relative="1" as="geometry">
        <mxPoint x="890" y="350" as="sourcePoint" />
        <mxPoint x="890" y="440" as="targetPoint" />
      </mxGeometry>
    </mxCell>
    <mxCell id="config_repl1" style="edgeStyle=orthogonalEdgeStyle;rounded=0;orthogonalLoop=1;jettySize=auto;html=1;strokeWidth=2;strokeColor=#ff6666;dashed=1;entryX=0;entryY=0.5;entryDx=0;entryDy=0;entryPerimeter=0;exitX=1;exitY=0.5;exitDx=0;exitDy=0;exitPerimeter=0;" parent="1" source="config1" target="config2" edge="1">
      <mxGeometry relative="1" as="geometry" />
    </mxCell>
    <mxCell id="config_repl2" style="edgeStyle=orthogonalEdgeStyle;rounded=0;orthogonalLoop=1;jettySize=auto;html=1;strokeWidth=2;strokeColor=#ff6666;dashed=1;entryX=0.5;entryY=0;entryDx=0;entryDy=0;entryPerimeter=0;exitX=0.5;exitY=1;exitDx=0;exitDy=0;exitPerimeter=0;" parent="1" source="config2" target="config3" edge="1">
      <mxGeometry relative="1" as="geometry">
        <Array as="points">
          <mxPoint x="245" y="650" />
          <mxPoint x="185" y="650" />
        </Array>
      </mxGeometry>
    </mxCell>
    <mxCell id="shard1_repl1" style="edgeStyle=orthogonalEdgeStyle;rounded=0;orthogonalLoop=1;jettySize=auto;html=1;strokeWidth=2;strokeColor=#00cc66;dashed=1;entryX=0;entryY=0.5;entryDx=0;entryDy=0;entryPerimeter=0;exitX=1;exitY=0.5;exitDx=0;exitDy=0;exitPerimeter=0;" parent="1" source="shard1_1" target="shard1_2" edge="1">
      <mxGeometry relative="1" as="geometry" />
    </mxCell>
    <mxCell id="shard1_repl2" style="edgeStyle=orthogonalEdgeStyle;rounded=0;orthogonalLoop=1;jettySize=auto;html=1;strokeWidth=2;strokeColor=#00cc66;dashed=1;entryX=0.5;entryY=0;entryDx=0;entryDy=0;entryPerimeter=0;exitX=0.5;exitY=1;exitDx=0;exitDy=0;exitPerimeter=0;" parent="1" source="shard1_2" target="shard1_3" edge="1">
      <mxGeometry relative="1" as="geometry" />
    </mxCell>
    <mxCell id="shard1_repl3" style="edgeStyle=orthogonalEdgeStyle;rounded=0;orthogonalLoop=1;jettySize=auto;html=1;strokeWidth=2;strokeColor=#00cc66;dashed=1;entryX=0.5;entryY=1;entryDx=0;entryDy=0;entryPerimeter=0;" parent="1" target="shard1_1" edge="1">
      <mxGeometry relative="1" as="geometry">
        <mxPoint x="920" y="740" as="sourcePoint" />
      </mxGeometry>
    </mxCell>
    <mxCell id="shard2_repl1" style="edgeStyle=orthogonalEdgeStyle;rounded=0;orthogonalLoop=1;jettySize=auto;html=1;strokeWidth=2;strokeColor=#00cc66;dashed=1;entryX=0;entryY=0.5;entryDx=0;entryDy=0;entryPerimeter=0;exitX=1;exitY=0.5;exitDx=0;exitDy=0;exitPerimeter=0;" parent="1" source="shard2_1" target="shard2_2" edge="1">
      <mxGeometry relative="1" as="geometry" />
    </mxCell>
    <mxCell id="shard2_repl2" style="edgeStyle=orthogonalEdgeStyle;rounded=0;orthogonalLoop=1;jettySize=auto;html=1;strokeWidth=2;strokeColor=#00cc66;dashed=1;entryX=0.5;entryY=0;entryDx=0;entryDy=0;entryPerimeter=0;exitX=0.5;exitY=1;exitDx=0;exitDy=0;exitPerimeter=0;" parent="1" source="shard2_2" target="shard2_3" edge="1">
      <mxGeometry relative="1" as="geometry" />
    </mxCell>
    <mxCell id="shard2_repl3" style="edgeStyle=orthogonalEdgeStyle;rounded=0;orthogonalLoop=1;jettySize=auto;html=1;strokeWidth=2;strokeColor=#00cc66;dashed=1;entryX=0.5;entryY=1;entryDx=0;exitY=0;exitDx=0;exitDy=0;exitPerimeter=0;" parent="1" source="shard2_3" target="shard2_1" edge="1">
      <mxGeometry relative="1" as="geometry" />
    </mxCell>
    <mxCell id="title1" value="Схема 2: MongoDB с шардированием и репликацией&lt;br&gt;Версия: 2.0 | Дата: 15.08.2025" style="text;html=1;strokeColor=none;fillColor=none;align=left;verticalAlign=top;whiteSpace=wrap;rounded=0;fontSize=16;fontStyle=1;" parent="1" vertex="1">
      <mxGeometry x="50" y="30" width="500" height="50" as="geometry" />
    </mxCell>
    <mxCell id="legend1" value="Легенда:&#xa;• Синий - Приложение (pymongo-api)&#xa;• Фиолетовый - Роутеры (mongos)&#xa;• Красный - Конфигурационные серверы RS&#xa;• Зеленый - Шарды RS&#xa;• Пунктирные цветные линии - Репликация&#xa;• Толстые серые шины - Общие соединения" style="text;html=1;strokeColor=#666666;fillColor=#f5f5f5;align=left;verticalAlign=top;whiteSpace=wrap;rounded=1;fontSize=11;" vertex="1" parent="1">
      <mxGeometry x="50" y="120" width="320" height="120" as="geometry" />
    </mxCell>
    <mxCell id="label1" value="Балансировка нагрузки" style="text;html=1;strokeColor=none;fillColor=none;align=center;verticalAlign=middle;whiteSpace=wrap;rounded=0;fontSize=10;fontStyle=2;" parent="1" vertex="1">
      <mxGeometry x="670" y="165" width="80" height="30" as="geometry" />
    </mxCell>
    <mxCell id="label2" value="Метаданные кластера" style="text;html=1;strokeColor=none;fillColor=none;align=center;verticalAlign=middle;whiteSpace=wrap;rounded=0;fontSize=12;fontStyle=2;" parent="1" vertex="1">
      <mxGeometry x="455" y="470" width="120" height="30" as="geometry" />
    </mxCell>
    <mxCell id="label3" value="Данные пользователей" style="text;html=1;strokeColor=none;fillColor=none;align=center;verticalAlign=middle;whiteSpace=wrap;rounded=0;fontSize=12;fontStyle=2;" parent="1" vertex="1">
      <mxGeometry x="780" y="470" width="120" height="30" as="geometry" />
    </mxCell>
    <mxCell id="-05sG0Bi-hZpC2jNQhVa-5" style="edgeStyle=orthogonalEdgeStyle;rounded=0;orthogonalLoop=1;jettySize=auto;html=1;exitX=0.5;exitY=0;exitDx=0;exitDy=0;exitPerimeter=0;entryX=0.5;entryY=1;entryDx=0;entryDy=0;entryPerimeter=0;dashed=1;strokeWidth=2;strokeColor=#FF6666;" edge="1" parent="1" source="config3" target="config1">
      <mxGeometry relative="1" as="geometry">
        <Array as="points">
          <mxPoint x="185" y="650" />
          <mxPoint x="125" y="650" />
        </Array>
      </mxGeometry>
    </mxCell>
  </root>
</mxGraphModel>
